<svg xmlns="http://www.w3.org/2000/svg" width="27.269" height="20.752" viewBox="0 0 27.269 20.752"><defs><style>.a{fill:#4d4f51;}</style></defs><g transform="translate(0 -57.75)"><g transform="translate(0 57.75)"><path class="a" d="M23.94,57.75H3.335A3.337,3.337,0,0,0,0,61.085V75.168A3.337,3.337,0,0,0,3.335,78.5h20.6a3.337,3.337,0,0,0,3.335-3.335V61.09A3.334,3.334,0,0,0,23.94,57.75Zm1.811,17.418a1.813,1.813,0,0,1-1.811,1.811H3.335a1.813,1.813,0,0,1-1.811-1.811V61.09a1.813,1.813,0,0,1,1.811-1.811h20.6a1.813,1.813,0,0,1,1.811,1.811V75.168Z" transform="translate(0 -57.75)"/><path class="a" d="M69.8,116.217l6.669-5.981a.763.763,0,0,0-1.021-1.134l-9.2,8.255-1.794-1.6c-.006-.006-.011-.011-.011-.017a1.127,1.127,0,0,0-.124-.107l-7.3-6.534a.763.763,0,0,0-1.016,1.14l6.748,6.032-6.72,6.291A.765.765,0,0,0,56,123.637a.779.779,0,0,0,.559.243.763.763,0,0,0,.519-.2L63.9,117.3l1.851,1.653a.76.76,0,0,0,1.016-.006l1.9-1.7,6.782,6.443a.764.764,0,0,0,1.078-.028.765.765,0,0,0-.028-1.078Z" transform="translate(-52.607 -106.016)"/></g></g></svg>