<?xml version="1.0" encoding="utf-8"?>
<!-- Generator: Adobe Illustrator 23.0.5, SVG Export Plug-In . SVG Version: 6.00 Build 0)  -->
<svg version="1.1" id="Layer_1" xmlns="http://www.w3.org/2000/svg" xmlns:xlink="http://www.w3.org/1999/xlink" x="0px" y="0px"
	 viewBox="0 0 104 100" style="enable-background:new 0 0 104 100;" xml:space="preserve">
<style type="text/css">
	.st0{clip-path:url(#SVGID_2_);}
	.st1{fill:#FFD86C;}
	.st2{fill:#0FAE4D;}
	.st3{fill:#146BBA;}
</style>
<g>
	<defs>
		<rect id="SVGID_1_" y="0" width="104" height="100"/>
	</defs>
	<clipPath id="SVGID_2_">
		<use xlink:href="#SVGID_1_"  style="overflow:visible;"/>
	</clipPath>
	<g id="Group_11" transform="translate(20.062 0)" class="st0">
		<path id="Path_11" class="st1" d="M29.5,20C24.9,25,22,32.4,22,40.7c0,14.8,9.3,26.9,20.7,26.9c5.7,0,10.8-3,14.5-7.8
			c-7.5,3.1-16.2-0.4-19.4-8c-0.8-1.8-1.1-3.8-1.1-5.7c0-6.5,3.3-12.3,6.1-16.1c1.6-2.2,3.4-4.2,5.4-5.9c-4.8-2.9-10.2-4.4-15.7-4.4
			C31.5,19.9,30.5,19.9,29.5,20"/>
	</g>
	<g id="Group_12" transform="translate(0 1.197)" class="st0">
		<path id="Path_12" class="st2" d="M62.8,70.1c-13.5,0-24.4-13.7-24.4-30.6c-0.1-7,1.9-13.8,5.7-19.7
			c-16.2,4.7-25.6,21.6-20.9,37.9s21.6,25.6,37.9,20.9c9.7-2.8,17.3-10.1,20.5-19.6C77.1,65.8,70.3,70.1,62.8,70.1"/>
	</g>
	<g id="Group_13" transform="translate(38.619 6.605)" class="st0">
		<path id="Path_13" class="st3" d="M44,39.6c0,6.1-4.9,11-11,11c-6.1,0-11-4.9-11-11C22,29,32.8,19.7,33,19.9
			C34.3,21,44,29.1,44,39.6"/>
	</g>
</g>
</svg>
