<?xml version="1.0" encoding="utf-8"?>
<!-- Generator: Adobe Illustrator 23.0.5, SVG Export Plug-In . SVG Version: 6.00 Build 0)  -->
<svg version="1.1" id="Layer_1" xmlns="http://www.w3.org/2000/svg" xmlns:xlink="http://www.w3.org/1999/xlink" x="0px" y="0px"
	 viewBox="0 0 236 39.7" style="enable-background:new 0 0 236 39.7;" xml:space="preserve">
<style type="text/css">
	.st0{fill:#146BBA;}
	.st1{clip-path:url(#SVGID_2_);}
	.st2{fill:#FFD86C;}
	.st3{fill:#0FAE4D;}
	.st4{clip-path:url(#SVGID_4_);}
	.st5{clip-path:url(#SVGID_6_);}
	.st6{clip-path:url(#SVGID_8_);}
	.st7{clip-path:url(#SVGID_10_);}
	.st8{clip-path:url(#SVGID_12_);}
	.st9{clip-path:url(#SVGID_14_);}
</style>
<g id="Group_3" transform="translate(40.06 -36.584)">
	<path id="Path_3" class="st0" d="M19.8,63.7l0-13l-6.4,10.7h-2.2L4.7,50.9v12.8H0V41.9h4.2l8.2,13.5l8-13.5h4.2l0,21.8H19.8z"/>
</g>
<g id="Group_4" transform="translate(70.795 -36.584)">
	<path id="Path_4" class="st0" d="M16.9,59.6v4H0V41.9h16.5v4H5v4.7h10.1v3.9H5v5H16.9z"/>
</g>
<g id="Group_5" transform="translate(92.508 -36.584)">
	<path id="Path_5" class="st0" d="M15.3,46H5l0,17.7H0V41.9h15.4L15.3,46z"/>
</g>
<g id="Group_6" transform="translate(105.043 -36.585)">
	<path id="Path_6" class="st0" d="M17.2,59H7.1l-1.9,4.7H0l9.7-21.8h5l9.7,21.8h-5.3L17.2,59z M15.6,55.2l-3.4-8.3l-3.5,8.3H15.6z"
		/>
</g>
<g id="Group_7" transform="translate(133.135 -36.584)">
	<path id="Path_7" class="st0" d="M19.8,63.7l0-13l-6.4,10.7h-2.2L4.7,50.9v12.8H0V41.9h4.2l8.2,13.5l8-13.5h4.2l0,21.8H19.8z"/>
</g>
<g id="Group_8" transform="translate(163.871 -36.584)">
	<path id="Path_8" class="st0" d="M0,41.9h5v14.2l10.4-14.2h4.7v21.8h-5V49.5L4.8,63.7H0V41.9z"/>
</g>
<g id="Group_9" transform="translate(190.125 -36.585)">
	<path id="Path_9" class="st0" d="M8.5,54.9H5v8.8H0V41.9h5v8.8h3.6l5.7-8.8h5.3l-7.1,10.5l7.3,11.3h-5.7L8.5,54.9z"/>
</g>
<g>
	<defs>
		<rect id="SVGID_1_" y="0" width="236" height="39.7"/>
	</defs>
	<clipPath id="SVGID_2_">
		<use xlink:href="#SVGID_1_"  style="overflow:visible;"/>
	</clipPath>
	<g id="Group_14" transform="translate(0 -41.889)" class="st1">
		<g id="Group_10" transform="translate(211.559 4.93)">
			<path id="Path_10" class="st0" d="M5.8,63c-1.8-0.9-3.2-2.3-4.2-4c-1-1.8-1.6-3.8-1.5-5.8c0-2,0.5-4,1.5-5.8c1-1.7,2.5-3.1,4.2-4
				c1.9-1,3.9-1.5,6.1-1.4c1.8,0,3.5,0.3,5.1,1c1.5,0.6,2.8,1.6,3.8,2.9l-3.2,3c-1.3-1.6-3.4-2.6-5.5-2.5c-1.3,0-2.5,0.3-3.6,0.9
				c-1,0.6-1.9,1.4-2.5,2.5c-0.6,1.1-0.9,2.3-0.9,3.6c0,1.3,0.3,2.5,0.9,3.6c0.6,1,1.4,1.9,2.5,2.5c1.1,0.6,2.4,0.9,3.6,0.9
				c2.1,0,4.1-0.9,5.5-2.6l3.2,3c-1,1.3-2.4,2.3-3.9,2.9c-1.6,0.7-3.4,1-5.1,1C9.7,64.4,7.6,63.9,5.8,63"/>
		</g>
		<g id="Group_11" transform="translate(10.569 0)">
			<path id="Path_11" class="st2" d="M4,42c-2.6,3-4,6.9-4,10.9c0,7.8,4.9,14.2,10.9,14.2c3-0.1,5.9-1.6,7.7-4.1
				c-4,1.7-8.5-0.2-10.2-4.2c-0.4-1-0.6-2-0.6-3c0.2-3.1,1.3-6.1,3.2-8.5c0.8-1.1,1.8-2.2,2.8-3.1c-2.5-1.5-5.4-2.3-8.3-2.3
				C5,41.9,4.5,41.9,4,42"/>
		</g>
		<g id="Group_12" transform="translate(0 0.631)">
			<path id="Path_12" class="st3" d="M21.5,68.4c-7.1,0-12.9-7.2-12.9-16.1c0-3.7,1-7.3,3-10.4C4.8,43.9,0,50.2,0,57.4
				c0,8.9,7.2,16.1,16.1,16.1c6.9,0,13.1-4.4,15.3-11C29,66.1,25.5,68.4,21.5,68.4"/>
		</g>
		<g id="Group_13" transform="translate(20.345 3.48)">
			<path id="Path_13" class="st0" d="M11.6,52.3c0,3.2-2.6,5.8-5.8,5.8S0,55.5,0,52.3c0-5.6,5.7-10.5,5.8-10.4
				C6.5,42.5,11.6,46.8,11.6,52.3"/>
		</g>
	</g>
</g>
<g id="Group_15" transform="translate(39.989 -9.556)">
	<path id="Path_15" class="st0" d="M6,45.4H5v2.6H3.9v-2.6h-1l-1.5,2.6H0l1.9-3.2l-1.8-2.9h1.2l1.5,2.5h1.1v-2.5H5v2.5h1l1.5-2.5
		h1.2l-1.8,2.9l1.9,3.1H7.5L6,45.4z"/>
</g>
<g id="Group_16" transform="translate(50.089 -9.557)">
	<path id="Path_16" class="st0" d="M0,41.9h1.1v4.3l3.2-4.3h1v6H4.3v-4.3L1,47.9H0V41.9z"/>
</g>
<g>
	<defs>
		<rect id="SVGID_3_" y="0" width="236" height="39.7"/>
	</defs>
	<clipPath id="SVGID_4_">
		<use xlink:href="#SVGID_3_"  style="overflow:visible;"/>
	</clipPath>
	<g id="Group_18" transform="translate(0 -41.889)" class="st4">
		<g id="Group_17" transform="translate(56.771 32.333)">
			<path id="Path_17" class="st0" d="M6.7,47v2.2h-1v-1.3H1v1.3H0L0,47h0.3c0.4,0,0.6-0.3,0.8-0.8c0.2-0.8,0.3-1.5,0.3-2.3l0.1-1.9
				h4.4V47L6.7,47z M2.1,45.9c0,0.4-0.2,0.8-0.5,1.1h3.1v-4.1H2.4l0,1.1C2.3,44.6,2.3,45.2,2.1,45.9"/>
		</g>
	</g>
</g>
<g id="Group_19" transform="translate(64.839 -9.556)">
	<path id="Path_19" class="st0" d="M2.2,45.4H1.1v2.6H0v-6h1.1v2.5h1.2L4,41.9h1.2l-2.1,2.9l2.1,3.1H4L2.2,45.4z"/>
</g>
<g id="Group_20" transform="translate(71.389 -9.557)">
	<path id="Path_20" class="st0" d="M0,41.9h1.1v4.3l3.2-4.3h1v6H4.3v-4.3L1,47.9H0V41.9z"/>
</g>
<g id="Group_21" transform="translate(78.702 -9.557)">
	<path id="Path_21" class="st0" d="M4.5,47v0.9H0v-6h4.4v0.9H1.1v1.6H4v0.9H1.1V47H4.5z"/>
</g>
<g id="Group_22" transform="translate(89.695 -9.557)">
	<path id="Path_22" class="st0" d="M5.5,47.9l0-4l-2,3.3H3.1l-2-3.3v4H0v-6h0.9l2.4,4l2.4-4h0.9l0,6H5.5z"/>
</g>
<g id="Group_23" transform="translate(98.225 -9.557)">
	<path id="Path_23" class="st0" d="M0,41.9h1.1v4.3l3.2-4.3h1v6H4.3v-4.3L1,47.9H0V41.9z"/>
</g>
<g id="Group_24" transform="translate(105.537 -9.557)">
	<path id="Path_24" class="st0" d="M5.4,41.9v6H4.2v-2.6H1.1v2.6H0v-6h1.1v2.5h3.1v-2.5H5.4z"/>
</g>
<g id="Group_25" transform="translate(112.821 -9.557)">
	<path id="Path_25" class="st0" d="M4.5,47v0.9H0v-6h4.4v0.9H1.1v1.6H4v0.9H1.1V47H4.5z"/>
</g>
<g>
	<defs>
		<rect id="SVGID_5_" y="0" width="236" height="39.7"/>
	</defs>
	<clipPath id="SVGID_6_">
		<use xlink:href="#SVGID_5_"  style="overflow:visible;"/>
	</clipPath>
	<g id="Group_27" transform="translate(0 -41.889)" class="st5">
		<g id="Group_26" transform="translate(118.84 32.332)">
			<path id="Path_26" class="st0" d="M3.9,42.1c0.4,0.2,0.7,0.4,0.9,0.7C5,43.2,5.1,43.6,5.1,44c0,0.4-0.1,0.8-0.3,1.1
				c-0.2,0.3-0.5,0.6-0.9,0.7c-0.4,0.2-0.9,0.3-1.4,0.3H1.1v1.7H0v-6h2.5C3,41.9,3.4,42,3.9,42.1 M3.5,44.9c0.3-0.2,0.4-0.6,0.4-0.9
				c0-0.3-0.1-0.7-0.4-0.9c-0.3-0.2-0.7-0.3-1.1-0.3H1.1v2.4h1.3C2.8,45.3,3.2,45.2,3.5,44.9"/>
		</g>
	</g>
</g>
<g id="Group_28" transform="translate(124.164 -9.557)">
	<path id="Path_28" class="st0" d="M4.8,46.5h-3l-0.6,1.4H0l2.7-6h1.1l2.7,6H5.4L4.8,46.5z M4.4,45.7L3.3,43l-1.1,2.6L4.4,45.7z"/>
</g>
<g>
	<defs>
		<rect id="SVGID_7_" y="0" width="236" height="39.7"/>
	</defs>
	<clipPath id="SVGID_8_">
		<use xlink:href="#SVGID_7_"  style="overflow:visible;"/>
	</clipPath>
	<g id="Group_31" transform="translate(0 -41.889)" class="st6">
		<g id="Group_29" transform="translate(131.616 32.332)">
			<path id="Path_29" class="st0" d="M5.9,41.9v6H4.8v-5.1H2.4l-0.1,1.5c0,0.7-0.1,1.4-0.2,2.1c-0.1,0.4-0.3,0.9-0.5,1.2
				C1.4,47.9,1,48,0.6,48c-0.2,0-0.4,0-0.6-0.1l0.1-1c0.1,0,0.2,0,0.3,0c0.4,0,0.7-0.3,0.7-0.6c0.2-0.6,0.3-1.3,0.3-2l0.1-2.5H5.9z"
				/>
		</g>
		<g id="Group_30" transform="translate(139.431 32.332)">
			<path id="Path_30" class="st0" d="M4.5,44.4c0.4,0.4,0.6,0.9,0.6,1.4c0,0.6-0.2,1.1-0.6,1.5c-0.5,0.4-1.2,0.6-1.8,0.5H0v-6h1.1v2
				h1.7C3.4,43.9,4,44.1,4.5,44.4 M3.6,46.8c0.2-0.2,0.4-0.5,0.4-0.9c0-0.7-0.5-1.1-1.4-1.1H1.1v2.3h1.4C2.9,47.1,3.3,47,3.6,46.8"
				/>
		</g>
	</g>
</g>
<g id="Group_32" transform="translate(145.839 -9.557)">
	<path id="Path_32" class="st0" d="M5.4,41.9v6H4.2v-2.6H1.1v2.6H0v-6h1.1v2.5h3.1v-2.5H5.4z"/>
</g>
<g>
	<defs>
		<rect id="SVGID_9_" y="0" width="236" height="39.7"/>
	</defs>
	<clipPath id="SVGID_10_">
		<use xlink:href="#SVGID_9_"  style="overflow:visible;"/>
	</clipPath>
	<g id="Group_34" transform="translate(0 -41.889)" class="st7">
		<g id="Group_33" transform="translate(153.127 32.332)">
			<path id="Path_33" class="st0" d="M4.5,44.4c0.4,0.4,0.6,0.9,0.6,1.4c0,0.6-0.2,1.2-0.6,1.5c-0.5,0.4-1.2,0.6-1.8,0.5H0v-6h1.1v2
				h1.7C3.4,43.9,4,44.1,4.5,44.4 M3.6,46.8c0.2-0.2,0.4-0.5,0.4-0.9c0-0.7-0.5-1.1-1.4-1.1H1.1v2.3h1.4C2.9,47.1,3.3,47,3.6,46.8
				 M5.9,41.9H7v6H5.9V41.9z"/>
		</g>
	</g>
</g>
<g id="Group_35" transform="translate(162.06 -9.557)">
	<path id="Path_35" class="st0" d="M4.5,47v0.9H0v-6h4.4v0.9H1.1v1.6H4v0.9H1.1V47H4.5z"/>
</g>
<g>
	<defs>
		<rect id="SVGID_11_" y="0" width="236" height="39.7"/>
	</defs>
	<clipPath id="SVGID_12_">
		<use xlink:href="#SVGID_11_"  style="overflow:visible;"/>
	</clipPath>
	<g id="Group_41" transform="translate(0 -41.889)" class="st8">
		<g id="Group_36" transform="translate(172.3 32.332)">
			<path id="Path_36" class="st0" d="M5.9,41.9l-2.6,4.9c-0.2,0.4-0.5,0.7-0.8,1c-0.3,0.2-0.7,0.3-1,0.3c-0.3,0-0.6-0.1-0.9-0.2
				L0.8,47c0.2,0.1,0.4,0.1,0.6,0.1c0.4,0,0.7-0.2,0.9-0.6l0.1-0.1L0,41.9h1.2L3,45.4l1.8-3.5H5.9z"/>
		</g>
		<g id="Group_37" transform="translate(178.418 32.333)">
			<path id="Path_37" class="st0" d="M6.7,47v2.2h-1v-1.3H1v1.3H0L0,47h0.3c0.4,0,0.6-0.3,0.8-0.8c0.2-0.8,0.3-1.5,0.3-2.3l0.1-1.9
				h4.4V47L6.7,47z M2.1,45.9c0,0.4-0.2,0.8-0.5,1.1h3.1v-4.1H2.4l0,1.1C2.3,44.6,2.3,45.2,2.1,45.9"/>
		</g>
		<g id="Group_38" transform="translate(185.943 32.247)">
			<path id="Path_38" class="st0" d="M1.6,47.7c-0.5-0.3-0.9-0.6-1.2-1.1C0.1,46.1,0,45.6,0,45c0-0.6,0.1-1.1,0.4-1.6
				c0.3-0.5,0.7-0.9,1.2-1.1c0.5-0.3,1.1-0.4,1.7-0.4c0.6,0,1.2,0.1,1.7,0.4c0.5,0.3,0.9,0.6,1.2,1.1c0.3,0.5,0.4,1,0.4,1.6
				c0,0.6-0.1,1.1-0.4,1.6c-0.3,0.5-0.7,0.9-1.2,1.1c-0.5,0.3-1.1,0.4-1.7,0.4C2.7,48.1,2.1,48,1.6,47.7 M4.3,46.8
				c0.3-0.2,0.6-0.4,0.8-0.8c0.2-0.3,0.3-0.7,0.3-1.1c0-0.4-0.1-0.8-0.3-1.1c-0.2-0.3-0.4-0.6-0.8-0.8C4,43,3.6,42.9,3.3,42.9
				c-0.4,0-0.8,0.1-1.1,0.3c-0.3,0.2-0.6,0.4-0.8,0.8c-0.2,0.3-0.3,0.7-0.3,1.1c0,0.4,0.1,0.8,0.3,1.1c0.2,0.3,0.4,0.6,0.8,0.8
				c0.3,0.2,0.7,0.3,1.1,0.3C3.6,47.1,4,47,4.3,46.8"/>
		</g>
		<g id="Group_39" transform="translate(193.974 32.332)">
			<path id="Path_39" class="st0" d="M0,41.9h4.7v0.9H1.1v1.5h1.8c0.6,0,1.2,0.1,1.7,0.5c0.4,0.3,0.6,0.8,0.6,1.3
				c0,0.5-0.2,1.1-0.6,1.4C4,47.8,3.3,48,2.7,47.9H0V41.9z M2.7,47.1c0.3,0,0.7-0.1,1-0.3C3.9,46.6,4,46.4,4,46.1
				c0-0.6-0.4-0.9-1.3-0.9H1.1v1.9H2.7z"/>
		</g>
		<g id="Group_40" transform="translate(200.561 32.332)">
			<path id="Path_40" class="st0" d="M3.9,42.1c0.4,0.2,0.7,0.4,0.9,0.7C5,43.2,5.1,43.6,5.1,44c0,0.4-0.1,0.8-0.3,1.1
				c-0.2,0.3-0.5,0.6-0.9,0.7c-0.4,0.2-0.9,0.3-1.4,0.3H1.1v1.7H0v-6h2.5C3,41.9,3.4,42,3.9,42.1 M3.5,44.9c0.3-0.2,0.4-0.6,0.4-0.9
				c0-0.3-0.1-0.7-0.4-0.9c-0.3-0.2-0.7-0.3-1.1-0.3H1.1v2.4h1.3C2.8,45.3,3.2,45.2,3.5,44.9"/>
		</g>
	</g>
</g>
<g id="Group_42" transform="translate(206.991 -9.557)">
	<path id="Path_42" class="st0" d="M4.5,47v0.9H0v-6h4.4v0.9H1.1v1.6H4v0.9H1.1V47H4.5z"/>
</g>
<g id="Group_43" transform="translate(213.008 -9.557)">
	<path id="Path_43" class="st0" d="M5.4,41.9v6H4.2v-2.6H1.1v2.6H0v-6h1.1v2.5h3.1v-2.5H5.4z"/>
</g>
<g id="Group_44" transform="translate(220.295 -9.557)">
	<path id="Path_44" class="st0" d="M0,41.9h1.1v4.3l3.2-4.3h1v6H4.3v-4.3L1,47.9H0V41.9z"/>
</g>
<g>
	<defs>
		<rect id="SVGID_13_" y="0" width="236" height="39.7"/>
	</defs>
	<clipPath id="SVGID_14_">
		<use xlink:href="#SVGID_13_"  style="overflow:visible;"/>
	</clipPath>
	<g id="Group_46" transform="translate(0 -41.889)" class="st9">
		<g id="Group_45" transform="translate(227.257 32.332)">
			<path id="Path_45" class="st0" d="M5,41.9v6H3.9v-1.7H2.3l-1.1,1.7H0l1.3-1.9c-0.4-0.1-0.7-0.4-1-0.7C0.1,45,0,44.5,0,44.1
				c0-0.4,0.1-0.8,0.3-1.2c0.2-0.3,0.5-0.6,0.9-0.8c0.4-0.2,0.9-0.3,1.3-0.3H5z M1.5,43.2c-0.3,0.2-0.4,0.6-0.4,0.9
				c0,0.3,0.1,0.7,0.4,0.9c0.3,0.2,0.7,0.3,1,0.3h1.4v-2.5H2.6C2.2,42.8,1.8,42.9,1.5,43.2"/>
		</g>
	</g>
</g>
</svg>
