<svg id="Layer_1" data-name="Layer 1" xmlns="http://www.w3.org/2000/svg" viewBox="0 0 230.54 39.36"><defs><style>.cls-1{fill:#026cb6;}.cls-2{fill:#ffc425;}.cls-3{fill:#00a94f;}</style></defs><title>logo ai</title><path class="cls-1" d="M62.14,27.19l0-12.93L55.75,24.91H53.53L47.17,14.5V27.19H42.48V5.58h4.14L54.7,19l8-13.43H66.8l0,21.61Z" transform="translate(-2.73 -0.32)"/><path class="cls-1" d="M89.71,23.18v4H73V5.58H89.31v4H78v4.69H88v3.89H78v5Z" transform="translate(-2.73 -0.32)"/><path class="cls-1" d="M109.74,9.66H99.46l0,17.53h-5V5.58h15.25Z" transform="translate(-2.73 -0.32)"/><path class="cls-1" d="M124,22.56H114l-1.91,4.63H107l9.63-21.61h4.94l9.66,21.61H126Zm-1.58-3.8L119,10.49l-3.43,8.27Z" transform="translate(-2.73 -0.32)"/><path class="cls-1" d="M154.5,27.19l0-12.93-6.36,10.65h-2.23L139.53,14.5V27.19h-4.7V5.58H139L147.06,19l8-13.43h4.14l0,21.61Z" transform="translate(-2.73 -0.32)"/><path class="cls-1" d="M165.33,5.58h5V19.66L180.61,5.58h4.69V27.19h-4.94v-14l-10.31,14h-4.72Z" transform="translate(-2.73 -0.32)"/><path class="cls-1" d="M199.81,18.48h-3.46v8.71h-5V5.58h5v8.74h3.58l5.68-8.74h5.28L203.82,16l7.29,11.17h-5.68Z" transform="translate(-2.73 -0.32)"/><path class="cls-1" d="M218.37,26.13a10.66,10.66,0,0,1-4.19-4,10.94,10.94,0,0,1-1.53-5.75,11,11,0,0,1,1.53-5.76,10.57,10.57,0,0,1,4.19-4,12.47,12.47,0,0,1,6-1.44,12.61,12.61,0,0,1,5.08,1A10.26,10.26,0,0,1,233.27,9l-3.21,3a6.92,6.92,0,0,0-5.43-2.53,7.21,7.21,0,0,0-3.59.88,6.37,6.37,0,0,0-2.45,2.46,7.25,7.25,0,0,0-.88,3.58,7.3,7.3,0,0,0,.88,3.58A6.34,6.34,0,0,0,221,22.42a7.21,7.21,0,0,0,3.59.88,6.86,6.86,0,0,0,5.43-2.56l3.21,3a10,10,0,0,1-3.83,2.87,12.66,12.66,0,0,1-5.09,1A12.49,12.49,0,0,1,218.37,26.13Z" transform="translate(-2.73 -0.32)"/><path class="cls-2" d="M17.15.4a16,16,0,0,0-3.93,10.83c0,7.75,4.86,14.06,10.83,14.06a9.7,9.7,0,0,0,7.59-4.05,7.67,7.67,0,0,1-3,.6,7.76,7.76,0,0,1-7.75-7.75,14.61,14.61,0,0,1,3.2-8.4A17.51,17.51,0,0,1,27,2.6,16,16,0,0,0,18.72.32C18.19.32,17.67.35,17.15.4Z" transform="translate(-2.73 -0.32)"/><path class="cls-3" d="M24.05,27.22c-7,0-12.75-7.18-12.75-16A18.47,18.47,0,0,1,14.3,1,16,16,0,1,0,33.88,21.41C31.53,25,28,27.22,24.05,27.22Z" transform="translate(-2.73 -0.32)"/><path class="cls-1" d="M34.43,14.09a5.76,5.76,0,1,1-11.51,0c0-5.52,5.66-10.4,5.76-10.32C29.35,4.36,34.43,8.61,34.43,14.09Z" transform="translate(-2.73 -0.32)"/><path class="cls-1" d="M48.36,35.87h-1V38.4H46.24V35.87h-1L43.7,38.4H42.41l1.89-3.13L42.54,32.4h1.18l1.47,2.51h1.05V32.4h1.09v2.51h1l1.47-2.51H51l-1.75,2.88,1.88,3.12H49.86Z" transform="translate(-2.73 -0.32)"/><path class="cls-1" d="M52.43,32.4h1.1v4.26l3.22-4.26h1v6h-1.1V34.15L53.47,38.4h-1Z" transform="translate(-2.73 -0.32)"/><path class="cls-1" d="M65.73,37.46v2.22h-1V38.4H60.1v1.28h-1V37.46h.26c.37,0,.64-.3.79-.84a10.78,10.78,0,0,0,.28-2.31l.07-1.91h4.39v5.06Zm-4.54-1.11a2.21,2.21,0,0,1-.47,1.11h3.05V33.34H61.42l0,1.07A14.77,14.77,0,0,1,61.19,36.35Z" transform="translate(-2.73 -0.32)"/><path class="cls-1" d="M69.28,35.87H68.16V38.4H67.07v-6h1.09v2.51h1.15L71,32.4h1.19l-2,2.91,2.12,3.09H71Z" transform="translate(-2.73 -0.32)"/><path class="cls-1" d="M73.57,32.4h1.09v4.26l3.23-4.26h1v6H77.83V34.15L74.6,38.4h-1Z" transform="translate(-2.73 -0.32)"/><path class="cls-1" d="M85.32,37.47v.93h-4.5v-6H85.2v.94H81.94V34.9h2.89v.91H81.94v1.66Z" transform="translate(-2.73 -0.32)"/><path class="cls-1" d="M97.23,38.4v-4l-2,3.29h-.5l-2-3.24V38.4h-1v-6h.92l2.37,4,2.35-4h.91v6Z" transform="translate(-2.73 -0.32)"/><path class="cls-1" d="M100.19,32.4h1.1v4.26l3.22-4.26h1v6h-1.1V34.15l-3.22,4.25h-1Z" transform="translate(-2.73 -0.32)"/><path class="cls-1" d="M112.78,32.4v6h-1.11V35.83h-3.11V38.4h-1.11v-6h1.11v2.48h3.11V32.4Z" transform="translate(-2.73 -0.32)"/><path class="cls-1" d="M119.18,37.47v.93h-4.5v-6h4.37v.94h-3.26V34.9h2.9v.91h-2.9v1.66Z" transform="translate(-2.73 -0.32)"/><path class="cls-1" d="M124.47,32.66a2,2,0,0,1,.89.74,2.23,2.23,0,0,1,0,2.27,2,2,0,0,1-.89.74,3.32,3.32,0,0,1-1.35.26h-1.36V38.4h-1.11v-6h2.47A3.32,3.32,0,0,1,124.47,32.66Zm-.3,2.76a1.24,1.24,0,0,0,0-1.77,1.75,1.75,0,0,0-1.11-.31h-1.3v2.39h1.3A1.75,1.75,0,0,0,124.17,35.42Z" transform="translate(-2.73 -0.32)"/><path class="cls-1" d="M130.67,37h-3l-.59,1.39h-1.15l2.7-6h1.1l2.71,6h-1.17Zm-.37-.87-1.13-2.62-1.12,2.62Z" transform="translate(-2.73 -0.32)"/><path class="cls-1" d="M139.17,32.4v6h-1.1V33.34h-2.36l-.05,1.5a12.36,12.36,0,0,1-.21,2,2.58,2.58,0,0,1-.52,1.19,1.26,1.26,0,0,1-1,.41,2.79,2.79,0,0,1-.61-.09l.07-1a.71.71,0,0,0,.26,0,.77.77,0,0,0,.74-.62,7,7,0,0,0,.27-2l.09-2.49Z" transform="translate(-2.73 -0.32)"/><path class="cls-1" d="M145.5,34.92a1.77,1.77,0,0,1,.58,1.43,1.86,1.86,0,0,1-.64,1.52,2.72,2.72,0,0,1-1.78.53h-2.58v-6h1.1v2h1.66A2.55,2.55,0,0,1,145.5,34.92Zm-.89,2.32a1,1,0,0,0,.35-.87c0-.73-.45-1.09-1.35-1.09h-1.43v2.26h1.43A1.49,1.49,0,0,0,144.61,37.24Z" transform="translate(-2.73 -0.32)"/><path class="cls-1" d="M152.77,32.4v6h-1.12V35.83h-3.1V38.4h-1.11v-6h1.11v2.48h3.1V32.4Z" transform="translate(-2.73 -0.32)"/><path class="cls-1" d="M159.09,34.92a1.77,1.77,0,0,1,.58,1.43,1.86,1.86,0,0,1-.64,1.52,2.72,2.72,0,0,1-1.78.53h-2.58v-6h1.1v2h1.66A2.55,2.55,0,0,1,159.09,34.92Zm-.89,2.32a1.08,1.08,0,0,0,.35-.87c0-.73-.45-1.09-1.35-1.09h-1.43v2.26h1.43A1.51,1.51,0,0,0,158.2,37.24Zm2.33-4.84h1.1v6h-1.1Z" transform="translate(-2.73 -0.32)"/><path class="cls-1" d="M168,37.47v.93h-4.5v-6h4.38v.94h-3.26V34.9h2.89v.91h-2.89v1.66Z" transform="translate(-2.73 -0.32)"/><path class="cls-1" d="M179.58,32.4,177,37.24a2.76,2.76,0,0,1-.82,1,1.85,1.85,0,0,1-1,.32,2.15,2.15,0,0,1-.88-.19l.28-.87a2.07,2.07,0,0,0,.58.11A1,1,0,0,0,176,37l.1-.15-2.4-4.47h1.2l1.77,3.53,1.82-3.53Z" transform="translate(-2.73 -0.32)"/><path class="cls-1" d="M186.43,37.46v2.22h-1V38.4h-4.6v1.28h-1V37.46H180c.38,0,.64-.3.79-.84a10.17,10.17,0,0,0,.28-2.31l.07-1.91h4.4v5.06Zm-4.54-1.11a2.3,2.3,0,0,1-.46,1.11h3V33.34h-2.35l0,1.07A13.22,13.22,0,0,1,181.89,36.35Z" transform="translate(-2.73 -0.32)"/><path class="cls-1" d="M188.81,38.09a3.11,3.11,0,0,1-1.16-4.27,2.93,2.93,0,0,1,1.16-1.1,3.36,3.36,0,0,1,1.65-.4,3.4,3.4,0,0,1,1.66.4,2.9,2.9,0,0,1,1.15,1.1,3,3,0,0,1,.42,1.58,3,3,0,0,1-.42,1.59,3,3,0,0,1-1.15,1.1,3.51,3.51,0,0,1-1.66.4A3.47,3.47,0,0,1,188.81,38.09Zm2.73-.85a2,2,0,0,0,.76-.75,2.23,2.23,0,0,0,.27-1.09,2.16,2.16,0,0,0-.27-1.08,2.13,2.13,0,0,0-.76-.76,2.3,2.3,0,0,0-2.16,0,2,2,0,0,0-.75.76,2.17,2.17,0,0,0-.28,1.08,2.24,2.24,0,0,0,.28,1.09,1.93,1.93,0,0,0,.75.75,2.3,2.3,0,0,0,2.16,0Z" transform="translate(-2.73 -0.32)"/><path class="cls-1" d="M195.2,32.4h4.67v.92H196.3v1.47h1.77a2.56,2.56,0,0,1,1.64.45,1.56,1.56,0,0,1,.56,1.3,1.66,1.66,0,0,1-.61,1.38,2.83,2.83,0,0,1-1.76.48h-2.7Zm2.64,5.14a1.69,1.69,0,0,0,1-.24.86.86,0,0,0,.33-.72c0-.62-.44-.93-1.31-.93H196.3v1.89Z" transform="translate(-2.73 -0.32)"/><path class="cls-1" d="M205.56,32.66a2,2,0,0,1,.89.74,2.23,2.23,0,0,1,0,2.27,2,2,0,0,1-.89.74,3.33,3.33,0,0,1-1.36.26h-1.35V38.4h-1.11v-6h2.46A3.33,3.33,0,0,1,205.56,32.66Zm-.3,2.76a1.22,1.22,0,0,0,0-1.77,1.75,1.75,0,0,0-1.11-.31h-1.3v2.39h1.3A1.75,1.75,0,0,0,205.26,35.42Z" transform="translate(-2.73 -0.32)"/><path class="cls-1" d="M212.62,37.47v.93h-4.5v-6h4.38v.94h-3.27V34.9h2.9v.91h-2.9v1.66Z" transform="translate(-2.73 -0.32)"/><path class="cls-1" d="M219.42,32.4v6H218.3V35.83h-3.1V38.4h-1.11v-6h1.11v2.48h3.1V32.4Z" transform="translate(-2.73 -0.32)"/><path class="cls-1" d="M221.32,32.4h1.09v4.26l3.23-4.26h1v6h-1.09V34.15l-3.23,4.25h-1Z" transform="translate(-2.73 -0.32)"/><path class="cls-1" d="M233.23,32.4v6h-1.1V36.73h-1.6l-1.11,1.67h-1.18l1.29-1.85a2,2,0,0,1-1-.73,2.17,2.17,0,0,1-.33-1.21,2.26,2.26,0,0,1,.3-1.19,2,2,0,0,1,.88-.75,3,3,0,0,1,1.33-.27Zm-3.51,1.26a1.17,1.17,0,0,0-.36.93,1.15,1.15,0,0,0,.35.91,1.47,1.47,0,0,0,1,.32h1.4V33.34h-1.36A1.55,1.55,0,0,0,229.72,33.66Z" transform="translate(-2.73 -0.32)"/></svg>