<?xml version="1.0" encoding="utf-8"?>
<!-- Generator: Adobe Illustrator 23.0.5, SVG Export Plug-In . SVG Version: 6.00 Build 0)  -->
<svg version="1.1" id="Layer_1" xmlns="http://www.w3.org/2000/svg" xmlns:xlink="http://www.w3.org/1999/xlink" x="0px" y="0px"
	 viewBox="0 0 236 39.7" style="enable-background:new 0 0 236 39.7;" xml:space="preserve">
<style type="text/css">
	.st0{fill:#FFFFFF;}
</style>
<path id="Path_3" class="st0" d="M59.9,27.1l0-13l-6.4,10.7h-2.2l-6.4-10.5v12.8h-4.7V5.3h4.2l8.2,13.5l8-13.5h4.2l0,21.8H59.9z"/>
<path id="Path_4" class="st0" d="M87.7,23v4H70.8V5.3h16.5v4H75.8v4.7h10.1V18H75.8v5H87.7z"/>
<path id="Path_5" class="st0" d="M107.8,9.4H97.5l0,17.7h-5V5.3h15.4L107.8,9.4z"/>
<path id="Path_6" class="st0" d="M122.2,22.4h-10.1l-1.9,4.7H105l9.7-21.8h5l9.7,21.8h-5.3L122.2,22.4z M120.7,18.6l-3.4-8.3
	l-3.5,8.3H120.7z"/>
<path id="Path_7" class="st0" d="M153,27.1l0-13l-6.4,10.7h-2.2l-6.4-10.5v12.8h-4.7V5.3h4.2l8.2,13.5l8-13.5h4.2l0,21.8H153z"/>
<path id="Path_8" class="st0" d="M163.9,5.3h5v14.2l10.4-14.2h4.7v21.8h-5V12.9l-10.4,14.2h-4.8V5.3z"/>
<path id="Path_9" class="st0" d="M198.6,18.3h-3.5v8.8h-5V5.3h5v8.8h3.6l5.7-8.8h5.3l-7.1,10.5l7.3,11.3h-5.7L198.6,18.3z"/>
<path id="Path_10" class="st0" d="M217.3,26c-1.8-0.9-3.2-2.3-4.2-4c-1-1.8-1.6-3.8-1.5-5.8c0-2,0.5-4,1.5-5.8c1-1.7,2.5-3.1,4.2-4
	c1.9-1,3.9-1.5,6.1-1.4c1.8,0,3.5,0.3,5.1,1c1.5,0.6,2.8,1.6,3.8,2.9l-3.2,3c-1.3-1.6-3.4-2.6-5.5-2.5c-1.3,0-2.5,0.3-3.6,0.9
	c-1,0.6-1.9,1.4-2.5,2.5c-0.6,1.1-0.9,2.3-0.9,3.6c0,1.3,0.3,2.5,0.9,3.6c0.6,1,1.4,1.9,2.5,2.5c1.1,0.6,2.4,0.9,3.6,0.9
	c2.1,0,4.1-0.9,5.5-2.6l3.2,3c-1,1.3-2.4,2.3-3.9,2.9c-1.6,0.7-3.4,1-5.1,1C221.3,27.5,219.2,27,217.3,26"/>
<path id="Path_11" class="st0" d="M14.5,0.1c-2.6,3-4,6.9-4,10.9c0,7.8,4.9,14.2,10.9,14.2c3-0.1,5.9-1.6,7.7-4.1
	c-4,1.7-8.5-0.2-10.2-4.2c-0.4-1-0.6-2-0.6-3c0.2-3.1,1.3-6.1,3.2-8.5c0.8-1.1,1.8-2.2,2.8-3.1C21.9,0.8,19,0,16.1,0
	C15.6,0,15.1,0,14.5,0.1"/>
<path id="Path_12" class="st0" d="M21.5,27.1c-7.1,0-12.9-7.2-12.9-16.1c0-3.7,1-7.3,3-10.4C4.8,2.6,0,8.9,0,16.1
	C0,25,7.2,32.2,16.1,32.2c6.9,0,13.1-4.4,15.3-11C29,24.8,25.5,27.1,21.5,27.1"/>
<path id="Path_13" class="st0" d="M32,13.9c0,3.2-2.6,5.8-5.8,5.8s-5.8-2.6-5.8-5.8c0-5.6,5.7-10.5,5.8-10.4
	C26.8,4.1,32,8.3,32,13.9"/>
<path id="Path_15" class="st0" d="M46,35.8h-1v2.6h-1.1v-2.6h-1l-1.5,2.6H40l1.9-3.2l-1.8-2.9h1.2l1.5,2.5h1.1v-2.5h1.1v2.5h1
	l1.5-2.5h1.2l-1.8,2.9l1.9,3.1h-1.3L46,35.8z"/>
<path id="Path_16" class="st0" d="M50.1,32.3h1.1v4.3l3.2-4.3h1v6h-1.1v-4.3l-3.2,4.3h-1V32.3z"/>
<g id="Group_17" transform="translate(56.771 32.333)">
	<path id="Path_17" class="st0" d="M6.7,5.1v2.2h-1V6H1v1.3H0l0-2.2h0.3c0.4,0,0.6-0.3,0.8-0.8c0.2-0.8,0.3-1.5,0.3-2.3L1.4,0h4.4
		v5.1L6.7,5.1z M2.1,4c0,0.4-0.2,0.8-0.5,1.1h3.1V0.9H2.4l0,1.1C2.3,2.7,2.3,3.3,2.1,4"/>
</g>
<path id="Path_19" class="st0" d="M67.1,35.8h-1.1v2.6h-1.1v-6h1.1v2.5h1.2l1.7-2.5H70L68,35.3l2.1,3.1h-1.3L67.1,35.8z"/>
<path id="Path_20" class="st0" d="M71.4,32.3h1.1v4.3l3.2-4.3h1v6h-1.1v-4.3l-3.3,4.3h-1V32.3z"/>
<path id="Path_21" class="st0" d="M83.2,37.4v0.9h-4.5v-6h4.4v0.9h-3.3v1.6h2.9v0.9h-2.9v1.7H83.2z"/>
<path id="Path_22" class="st0" d="M95.2,38.4l0-4l-2,3.3h-0.5l-2-3.3v4h-1.1v-6h0.9l2.4,4l2.4-4h0.9l0,6H95.2z"/>
<path id="Path_23" class="st0" d="M98.2,32.3h1.1v4.3l3.2-4.3h1v6h-1.1v-4.3l-3.2,4.3h-1V32.3z"/>
<path id="Path_24" class="st0" d="M110.9,32.3v6h-1.1v-2.6h-3.1v2.6h-1.1v-6h1.1v2.5h3.1v-2.5H110.9z"/>
<path id="Path_25" class="st0" d="M117.4,37.4v0.9h-4.5v-6h4.4v0.9h-3.3v1.6h2.9v0.9h-2.9v1.7H117.4z"/>
<g id="Group_26" transform="translate(118.84 32.332)">
	<path id="Path_26" class="st0" d="M3.9,0.3C4.2,0.4,4.5,0.7,4.7,1C5,1.3,5.1,1.7,5.1,2.2C5.1,2.6,5,3,4.7,3.3
		C4.5,3.6,4.2,3.9,3.9,4C3.4,4.2,3,4.3,2.5,4.3H1.1V6H0V0h2.5C3,0,3.4,0.1,3.9,0.3 M3.5,3c0.3-0.2,0.4-0.6,0.4-0.9
		c0-0.3-0.1-0.7-0.4-0.9C3.2,1,2.8,0.9,2.4,1H1.1v2.4h1.3C2.8,3.4,3.2,3.3,3.5,3"/>
</g>
<path id="Path_28" class="st0" d="M128.9,37h-3l-0.6,1.4h-1.2l2.7-6h1.1l2.7,6h-1.2L128.9,37z M128.6,36.1l-1.1-2.6l-1.1,2.6
	L128.6,36.1z"/>
<g id="Group_29" transform="translate(131.616 32.332)">
	<path id="Path_29" class="st0" d="M5.9,0v6H4.8V1H2.4L2.4,2.5c0,0.7-0.1,1.4-0.2,2.1C2.1,5,1.9,5.4,1.6,5.7C1.4,6,1,6.2,0.6,6.1
		C0.4,6.1,0.2,6.1,0,6l0.1-1c0.1,0,0.2,0,0.3,0c0.4,0,0.7-0.3,0.7-0.6c0.2-0.6,0.3-1.3,0.3-2L1.4,0H5.9z"/>
</g>
<g id="Group_30" transform="translate(139.431 32.332)">
	<path id="Path_30" class="st0" d="M4.5,2.5C4.9,2.9,5.1,3.4,5,4c0,0.6-0.2,1.1-0.6,1.5C3.9,5.9,3.2,6.1,2.6,6H0V0h1.1v2h1.7
		C3.4,2,4,2.2,4.5,2.5 M3.6,4.9C3.8,4.7,3.9,4.3,3.9,4c0-0.7-0.5-1.1-1.4-1.1H1.1v2.3h1.4C2.9,5.2,3.3,5.1,3.6,4.9"/>
</g>
<path id="Path_32" class="st0" d="M151.2,32.3v6h-1.1v-2.6H147v2.6h-1.1v-6h1.1v2.5h3.1v-2.5H151.2z"/>
<g id="Group_33" transform="translate(153.127 32.332)">
	<path id="Path_33" class="st0" d="M4.5,2.5C4.9,2.9,5.1,3.4,5,4c0,0.6-0.2,1.2-0.6,1.5C3.9,5.9,3.2,6.1,2.6,6H0V0h1.1v2h1.7
		C3.4,2,4,2.2,4.5,2.5 M3.6,4.9C3.8,4.7,3.9,4.3,3.9,4c0-0.7-0.5-1.1-1.4-1.1H1.1v2.3h1.4C2.9,5.2,3.3,5.1,3.6,4.9 M5.9,0H7v6H5.9V0
		z"/>
</g>
<path id="Path_35" class="st0" d="M166.6,37.4v0.9h-4.5v-6h4.4v0.9h-3.3v1.6h2.9v0.9h-2.9v1.7H166.6z"/>
<g id="Group_36" transform="translate(172.3 32.332)">
	<path id="Path_36" class="st0" d="M5.9,0L3.3,4.9c-0.2,0.4-0.5,0.7-0.8,1c-0.3,0.2-0.7,0.3-1,0.3C1.1,6.2,0.8,6.1,0.6,6l0.3-0.9
		C1,5.2,1.2,5.2,1.4,5.2c0.4,0,0.7-0.2,0.9-0.6l0.1-0.1L0,0h1.2L3,3.5L4.8,0H5.9z"/>
</g>
<g id="Group_37" transform="translate(178.418 32.333)">
	<path id="Path_37" class="st0" d="M6.7,5.1v2.2h-1V6H1v1.3H0l0-2.2h0.3c0.4,0,0.6-0.3,0.8-0.8c0.2-0.8,0.3-1.5,0.3-2.3L1.4,0h4.4
		v5.1L6.7,5.1z M2.1,4c0,0.4-0.2,0.8-0.5,1.1h3.1V0.9H2.4l0,1.1C2.3,2.7,2.3,3.3,2.1,4"/>
</g>
<g id="Group_38" transform="translate(185.943 32.247)">
	<path id="Path_38" class="st0" d="M1.6,5.8C1.1,5.6,0.7,5.2,0.4,4.7C0.1,4.2,0,3.7,0,3.1C0,2.5,0.1,2,0.4,1.5
		C0.7,1,1.1,0.7,1.6,0.4C2.1,0.1,2.7,0,3.3,0c0.6,0,1.2,0.1,1.7,0.4C5.4,0.7,5.8,1,6.1,1.5c0.3,0.5,0.4,1,0.4,1.6
		c0,0.6-0.1,1.1-0.4,1.6C5.8,5.2,5.4,5.6,4.9,5.8C4.4,6.1,3.8,6.2,3.3,6.2C2.7,6.2,2.1,6.1,1.6,5.8 M4.3,5c0.3-0.2,0.6-0.4,0.8-0.8
		c0.2-0.3,0.3-0.7,0.3-1.1c0-0.4-0.1-0.8-0.3-1.1C4.9,1.7,4.7,1.4,4.3,1.3C4,1.1,3.6,1,3.3,1C2.9,1,2.5,1.1,2.2,1.3
		C1.8,1.4,1.6,1.7,1.4,2C1.2,2.3,1.1,2.7,1.1,3.1c0,0.4,0.1,0.8,0.3,1.1C1.6,4.5,1.8,4.8,2.2,5c0.3,0.2,0.7,0.3,1.1,0.3
		C3.6,5.2,4,5.1,4.3,5"/>
</g>
<g id="Group_39" transform="translate(193.974 32.332)">
	<path id="Path_39" class="st0" d="M0,0h4.7v0.9H1.1v1.5h1.8c0.6,0,1.2,0.1,1.7,0.5c0.4,0.3,0.6,0.8,0.6,1.3c0,0.5-0.2,1.1-0.6,1.4
		C4,5.9,3.3,6.1,2.7,6H0V0z M2.7,5.2c0.3,0,0.7-0.1,1-0.3C3.9,4.8,4,4.5,4,4.2c0-0.6-0.4-0.9-1.3-0.9H1.1v1.9H2.7z"/>
</g>
<g id="Group_40" transform="translate(200.561 32.332)">
	<path id="Path_40" class="st0" d="M3.9,0.3C4.2,0.4,4.5,0.7,4.8,1C5,1.3,5.1,1.7,5.1,2.2C5.1,2.6,5,3,4.8,3.3
		C4.5,3.6,4.2,3.9,3.9,4C3.4,4.2,3,4.3,2.5,4.3H1.1V6H0V0h2.5C3,0,3.4,0.1,3.9,0.3 M3.5,3c0.3-0.2,0.4-0.6,0.4-0.9
		c0-0.3-0.1-0.7-0.4-0.9C3.2,1,2.8,0.9,2.4,1H1.1v2.4h1.3C2.8,3.4,3.2,3.3,3.5,3"/>
</g>
<path id="Path_42" class="st0" d="M211.5,37.4v0.9H207v-6h4.4v0.9h-3.3v1.6h2.9v0.9h-2.9v1.7H211.5z"/>
<path id="Path_43" class="st0" d="M218.4,32.3v6h-1.1v-2.6h-3.1v2.6H213v-6h1.1v2.5h3.1v-2.5H218.4z"/>
<path id="Path_44" class="st0" d="M220.3,32.3h1.1v4.3l3.2-4.3h1v6h-1.1v-4.3l-3.2,4.3h-1V32.3z"/>
<path id="Path_45" class="st0" d="M232.3,32.3v6h-1.1v-1.7h-1.6l-1.1,1.7h-1.2l1.3-1.9c-0.4-0.1-0.7-0.4-1-0.7
	c-0.2-0.4-0.4-0.8-0.3-1.2c0-0.4,0.1-0.8,0.3-1.2c0.2-0.3,0.5-0.6,0.9-0.8c0.4-0.2,0.9-0.3,1.3-0.3H232.3z M228.8,33.6
	c-0.3,0.2-0.4,0.6-0.4,0.9c0,0.3,0.1,0.7,0.4,0.9c0.3,0.2,0.7,0.3,1,0.3h1.4v-2.5h-1.4C229.4,33.3,229.1,33.4,228.8,33.6"/>
</svg>
