<svg xmlns="http://www.w3.org/2000/svg" width="17.74" height="13.513" viewBox="0 0 17.74 13.513"><defs><style>.a{fill:#3bac5d;}</style></defs><g transform="translate(0 -61)"><g transform="translate(0 61)"><path class="a" d="M16.181,61H1.559A1.562,1.562,0,0,0,0,62.559V72.954a1.562,1.562,0,0,0,1.559,1.559H16.181a1.562,1.562,0,0,0,1.559-1.559V62.559A1.562,1.562,0,0,0,16.181,61Zm-.215,1.039L8.9,69.1,1.78,62.039ZM1.039,72.738V62.769l5.006,4.963Zm.735.735,5.009-5.009L8.539,70.2a.52.52,0,0,0,.733,0l1.711-1.711,4.982,4.982ZM16.7,72.738l-4.982-4.982L16.7,62.774Z" transform="translate(0 -61)"/></g></g></svg>