<svg xmlns="http://www.w3.org/2000/svg" width="19.336" height="19.334" viewBox="0 0 19.336 19.334"><defs><style>.a{fill:#3bac5d;}</style></defs><g transform="translate(-0.002 -0.02)"><g transform="translate(0.002 1.044)"><path class="a" d="M17.9,40.455l-2.393-2.476-.007-.007a1.7,1.7,0,0,0-2.4,0l-1.092,1.092a1.287,1.287,0,0,1-1.821,0h0l-3.8-3.709a1.287,1.287,0,0,1,0-1.821l1.092-1.092a1.7,1.7,0,0,0,0-2.4l-2.4-2.4a1.7,1.7,0,0,0-2.4,0l-.8.8L1.8,28.51a6.124,6.124,0,0,0,0,8.666l6.567,6.477a6.124,6.124,0,0,0,8.658.008l.875-.807A1.7,1.7,0,0,0,17.9,40.455ZM3.473,28.437a.567.567,0,0,1,.8,0l2.4,2.4a.566.566,0,0,1,0,.8l-.4.4-3.2-3.2ZM9.165,42.851,2.6,36.375a4.992,4.992,0,0,1-.313-6.721l3.193,3.193a2.423,2.423,0,0,0,.106,3.31l3.8,3.71a2.418,2.418,0,0,0,3.309.1l3.193,3.193A4.98,4.98,0,0,1,9.165,42.851Zm7.937-.8-.381.351L13.5,39.174l.4-.4a.566.566,0,0,1,.8,0l2.4,2.482A.567.567,0,0,1,17.1,42.046Z" transform="translate(-0.002 -27.139)"/></g><g transform="translate(9.142 0.02)"><path class="a" d="M242.587.02a.566.566,0,0,0,0,1.133,8.506,8.506,0,0,1,8.5,8.5.566.566,0,0,0,1.133,0A9.624,9.624,0,0,0,242.587.02Z" transform="translate(-242.021 -0.02)"/></g><g transform="translate(9.142 2.286)"><path class="a" d="M242.587,60.015a.566.566,0,0,0,0,1.133,6.238,6.238,0,0,1,6.231,6.231.566.566,0,1,0,1.133,0A7.372,7.372,0,0,0,242.587,60.015Z" transform="translate(-242.021 -60.015)"/></g><g transform="translate(9.142 4.552)"><path class="a" d="M242.587,120.011a.566.566,0,0,0,0,1.133,3.97,3.97,0,0,1,3.965,3.965.566.566,0,1,0,1.133,0A5.1,5.1,0,0,0,242.587,120.011Z" transform="translate(-242.021 -120.011)"/></g><g transform="translate(9.142 6.817)"><path class="a" d="M242.587,180.006a.566.566,0,0,0,0,1.133,1.7,1.7,0,0,1,1.7,1.7.566.566,0,1,0,1.133,0A2.835,2.835,0,0,0,242.587,180.006Z" transform="translate(-242.021 -180.006)"/></g></g></svg>