<svg xmlns="http://www.w3.org/2000/svg" width="16.156" height="19.97" viewBox="0 0 16.156 19.97"><defs><style>.a{fill:#3bac5d;}</style></defs><g transform="translate(-48.886)"><g transform="translate(48.886)"><path class="a" d="M63.593,3.472a8.063,8.063,0,0,0-13.257,0A8.065,8.065,0,0,0,49.4,10.9a6.351,6.351,0,0,0,1.171,1.933l5.865,6.889a.7.7,0,0,0,1.063,0l5.864-6.888a6.357,6.357,0,0,0,1.17-1.93A8.066,8.066,0,0,0,63.593,3.472Zm-.371,6.946a4.981,4.981,0,0,1-.921,1.509l0,0-5.334,6.265-5.337-6.269a4.984,4.984,0,0,1-.923-1.513,6.671,6.671,0,0,1,.78-6.147,6.667,6.667,0,0,1,10.96,0A6.672,6.672,0,0,1,63.222,10.418Z" transform="translate(-48.886)"/></g><g transform="translate(53.054 4.143)"><path class="a" d="M159.664,106.219a3.91,3.91,0,1,0,3.91,3.91A3.915,3.915,0,0,0,159.664,106.219Zm0,6.424a2.514,2.514,0,1,1,2.514-2.514A2.517,2.517,0,0,1,159.664,112.643Z" transform="translate(-155.754 -106.219)"/></g></g></svg>