<svg xmlns="http://www.w3.org/2000/svg" width="100.453" height="101.332" viewBox="0 0 100.453 101.332"><defs><style>.a{fill:#fff;}</style></defs><g transform="translate(-2170.418 1049.588)"><g transform="translate(2203.647 -1049.588)"><path class="a" d="M8.274.164C.673,8.345-4.185,20.69-4.185,34.483c0,24.563,15.406,44.556,34.324,44.556C39.5,79.039,48,74.13,54.2,66.2A24.519,24.519,0,0,1,20.25,43.544c0-10.78,5.513-20.431,10.148-26.626a57.555,57.555,0,0,1,8.919-9.785A50.457,50.457,0,0,0,13.251-.083c-1.679,0-3.34.086-4.977.247" transform="translate(4.185 0.083)"/></g><g transform="translate(2170.418 -1047.606)"><path class="a" d="M44.861,55.274c-22.28,0-40.406-22.726-40.406-50.65A58.513,58.513,0,0,1,13.96-27.959,50.663,50.663,0,1,0,75.988,36.882C68.57,48.108,57.371,55.274,44.861,55.274" transform="translate(22.692 27.959)"/></g><g transform="translate(2234.383 -1038.649)"><path class="a" d="M24.232,21.707a18.244,18.244,0,0,1-36.489,0c0-17.5,17.936-32.946,18.246-32.684C8.132-9.137,24.232,4.331,24.232,21.707" transform="translate(12.257 10.98)"/></g></g></svg>